<mxfile host="app.diagrams.net" modified="2023-08-04T01:05:01.544Z" agent="Mozilla/5.0 (Windows NT 10.0; Win64; x64) AppleWebKit/537.36 (KHTML, like Gecko) Chrome/115.0.0.0 Safari/537.36" etag="dzo87D7T14d8mh3LEbaL" version="21.6.6" type="github">
  <diagram id="R2lEEEUBdFMjLlhIrx00" name="Page-1">
    <mxGraphModel dx="772" dy="314" grid="1" gridSize="10" guides="1" tooltips="1" connect="1" arrows="1" fold="1" page="1" pageScale="1" pageWidth="850" pageHeight="1100" math="0" shadow="0" extFonts="Permanent Marker^https://fonts.googleapis.com/css?family=Permanent+Marker">
      <root>
        <mxCell id="0" />
        <mxCell id="1" parent="0" />
        <mxCell id="C-vyLk0tnHw3VtMMgP7b-23" value="Pacientes" style="shape=table;startSize=30;container=1;collapsible=1;childLayout=tableLayout;fixedRows=1;rowLines=0;fontStyle=1;align=center;resizeLast=1;labelBackgroundColor=none;fillColor=#09555B;strokeColor=#BAC8D3;fontColor=#EEEEEE;" parent="1" vertex="1">
          <mxGeometry x="30" y="40" width="210" height="240" as="geometry">
            <mxRectangle x="30" y="40" width="100" height="30" as="alternateBounds" />
          </mxGeometry>
        </mxCell>
        <mxCell id="C-vyLk0tnHw3VtMMgP7b-24" value="" style="shape=partialRectangle;collapsible=0;dropTarget=0;pointerEvents=0;fillColor=none;points=[[0,0.5],[1,0.5]];portConstraint=eastwest;top=0;left=0;right=0;bottom=1;labelBackgroundColor=none;strokeColor=#BAC8D3;fontColor=#050505;" parent="C-vyLk0tnHw3VtMMgP7b-23" vertex="1">
          <mxGeometry y="30" width="210" height="30" as="geometry" />
        </mxCell>
        <mxCell id="C-vyLk0tnHw3VtMMgP7b-25" value="PK" style="shape=partialRectangle;overflow=hidden;connectable=0;fillColor=default;top=0;left=0;bottom=0;right=0;fontStyle=1;labelBackgroundColor=none;strokeColor=#BAC8D3;fontColor=#050505;" parent="C-vyLk0tnHw3VtMMgP7b-24" vertex="1">
          <mxGeometry width="30" height="30" as="geometry">
            <mxRectangle width="30" height="30" as="alternateBounds" />
          </mxGeometry>
        </mxCell>
        <mxCell id="C-vyLk0tnHw3VtMMgP7b-26" value="ID" style="shape=partialRectangle;overflow=hidden;connectable=0;fillColor=#FFFFFF;top=0;left=0;bottom=0;right=0;align=left;spacingLeft=6;fontStyle=5;labelBackgroundColor=none;strokeColor=#BAC8D3;fontColor=#030303;" parent="C-vyLk0tnHw3VtMMgP7b-24" vertex="1">
          <mxGeometry x="30" width="180" height="30" as="geometry">
            <mxRectangle width="180" height="30" as="alternateBounds" />
          </mxGeometry>
        </mxCell>
        <mxCell id="C-vyLk0tnHw3VtMMgP7b-27" value="" style="shape=partialRectangle;collapsible=0;dropTarget=0;pointerEvents=0;fillColor=none;points=[[0,0.5],[1,0.5]];portConstraint=eastwest;top=0;left=0;right=0;bottom=0;labelBackgroundColor=none;strokeColor=#BAC8D3;fontColor=#EEEEEE;" parent="C-vyLk0tnHw3VtMMgP7b-23" vertex="1">
          <mxGeometry y="60" width="210" height="30" as="geometry" />
        </mxCell>
        <mxCell id="C-vyLk0tnHw3VtMMgP7b-28" value="" style="shape=partialRectangle;overflow=hidden;connectable=0;fillColor=default;top=0;left=0;bottom=0;right=0;labelBackgroundColor=none;strokeColor=#BAC8D3;fontColor=#EEEEEE;" parent="C-vyLk0tnHw3VtMMgP7b-27" vertex="1">
          <mxGeometry width="30" height="30" as="geometry">
            <mxRectangle width="30" height="30" as="alternateBounds" />
          </mxGeometry>
        </mxCell>
        <mxCell id="C-vyLk0tnHw3VtMMgP7b-29" value="nome VARCHAR(100)" style="shape=partialRectangle;overflow=hidden;connectable=0;fillColor=#E8E8E8;top=0;left=0;bottom=0;right=0;align=left;spacingLeft=6;labelBackgroundColor=none;strokeColor=#BAC8D3;fontColor=#050505;labelBorderColor=none;strokeWidth=1;fontSize=10;" parent="C-vyLk0tnHw3VtMMgP7b-27" vertex="1">
          <mxGeometry x="30" width="180" height="30" as="geometry">
            <mxRectangle width="180" height="30" as="alternateBounds" />
          </mxGeometry>
        </mxCell>
        <mxCell id="qPftX9cF_MReuQcQceMw-24" value="" style="shape=partialRectangle;collapsible=0;dropTarget=0;pointerEvents=0;fillColor=none;points=[[0,0.5],[1,0.5]];portConstraint=eastwest;top=0;left=0;right=0;bottom=0;labelBackgroundColor=none;strokeColor=#BAC8D3;fontColor=#EEEEEE;" parent="C-vyLk0tnHw3VtMMgP7b-23" vertex="1">
          <mxGeometry y="90" width="210" height="30" as="geometry" />
        </mxCell>
        <mxCell id="qPftX9cF_MReuQcQceMw-25" value="" style="shape=partialRectangle;overflow=hidden;connectable=0;fillColor=default;top=0;left=0;bottom=0;right=0;labelBackgroundColor=none;strokeColor=#BAC8D3;fontColor=#EEEEEE;" parent="qPftX9cF_MReuQcQceMw-24" vertex="1">
          <mxGeometry width="30" height="30" as="geometry">
            <mxRectangle width="30" height="30" as="alternateBounds" />
          </mxGeometry>
        </mxCell>
        <mxCell id="qPftX9cF_MReuQcQceMw-26" value="cpf VARCHAR(11)" style="shape=partialRectangle;overflow=hidden;connectable=0;fillColor=#E6E6E6;top=0;left=0;bottom=0;right=0;align=left;spacingLeft=6;labelBackgroundColor=none;strokeColor=#CCCCCC;fontColor=#050505;fontSize=10;" parent="qPftX9cF_MReuQcQceMw-24" vertex="1">
          <mxGeometry x="30" width="180" height="30" as="geometry">
            <mxRectangle width="180" height="30" as="alternateBounds" />
          </mxGeometry>
        </mxCell>
        <mxCell id="qPftX9cF_MReuQcQceMw-30" value="" style="shape=partialRectangle;collapsible=0;dropTarget=0;pointerEvents=0;fillColor=none;points=[[0,0.5],[1,0.5]];portConstraint=eastwest;top=0;left=0;right=0;bottom=0;labelBackgroundColor=none;strokeColor=#BAC8D3;fontColor=#EEEEEE;" parent="C-vyLk0tnHw3VtMMgP7b-23" vertex="1">
          <mxGeometry y="120" width="210" height="30" as="geometry" />
        </mxCell>
        <mxCell id="qPftX9cF_MReuQcQceMw-31" value="" style="shape=partialRectangle;overflow=hidden;connectable=0;fillColor=default;top=0;left=0;bottom=0;right=0;labelBackgroundColor=none;strokeColor=#BAC8D3;fontColor=#EEEEEE;" parent="qPftX9cF_MReuQcQceMw-30" vertex="1">
          <mxGeometry width="30" height="30" as="geometry">
            <mxRectangle width="30" height="30" as="alternateBounds" />
          </mxGeometry>
        </mxCell>
        <mxCell id="qPftX9cF_MReuQcQceMw-32" value="nascimento VARCHAR(11)" style="shape=partialRectangle;overflow=hidden;connectable=0;fillColor=#E6E6E6;top=0;left=0;bottom=0;right=0;align=left;spacingLeft=6;labelBackgroundColor=none;strokeColor=#CCCCCC;fontColor=#050505;fontSize=10;" parent="qPftX9cF_MReuQcQceMw-30" vertex="1">
          <mxGeometry x="30" width="180" height="30" as="geometry">
            <mxRectangle width="180" height="30" as="alternateBounds" />
          </mxGeometry>
        </mxCell>
        <mxCell id="qPftX9cF_MReuQcQceMw-33" value="" style="shape=partialRectangle;collapsible=0;dropTarget=0;pointerEvents=0;fillColor=none;points=[[0,0.5],[1,0.5]];portConstraint=eastwest;top=0;left=0;right=0;bottom=0;labelBackgroundColor=none;strokeColor=#BAC8D3;fontColor=#EEEEEE;" parent="C-vyLk0tnHw3VtMMgP7b-23" vertex="1">
          <mxGeometry y="150" width="210" height="30" as="geometry" />
        </mxCell>
        <mxCell id="qPftX9cF_MReuQcQceMw-34" value="" style="shape=partialRectangle;overflow=hidden;connectable=0;fillColor=default;top=0;left=0;bottom=0;right=0;labelBackgroundColor=none;strokeColor=#BAC8D3;fontColor=#EEEEEE;" parent="qPftX9cF_MReuQcQceMw-33" vertex="1">
          <mxGeometry width="30" height="30" as="geometry">
            <mxRectangle width="30" height="30" as="alternateBounds" />
          </mxGeometry>
        </mxCell>
        <mxCell id="qPftX9cF_MReuQcQceMw-35" value="telefone VARCHAR(20)" style="shape=partialRectangle;overflow=hidden;connectable=0;fillColor=#E6E6E6;top=0;left=0;bottom=0;right=0;align=left;spacingLeft=6;labelBackgroundColor=none;strokeColor=#CCCCCC;fontColor=#050505;fontSize=10;" parent="qPftX9cF_MReuQcQceMw-33" vertex="1">
          <mxGeometry x="30" width="180" height="30" as="geometry">
            <mxRectangle width="180" height="30" as="alternateBounds" />
          </mxGeometry>
        </mxCell>
        <mxCell id="qPftX9cF_MReuQcQceMw-36" value="" style="shape=partialRectangle;collapsible=0;dropTarget=0;pointerEvents=0;fillColor=none;points=[[0,0.5],[1,0.5]];portConstraint=eastwest;top=0;left=0;right=0;bottom=0;labelBackgroundColor=none;strokeColor=#BAC8D3;fontColor=#EEEEEE;" parent="C-vyLk0tnHw3VtMMgP7b-23" vertex="1">
          <mxGeometry y="180" width="210" height="30" as="geometry" />
        </mxCell>
        <mxCell id="qPftX9cF_MReuQcQceMw-37" value="" style="shape=partialRectangle;overflow=hidden;connectable=0;fillColor=default;top=0;left=0;bottom=0;right=0;labelBackgroundColor=none;strokeColor=#BAC8D3;fontColor=#EEEEEE;" parent="qPftX9cF_MReuQcQceMw-36" vertex="1">
          <mxGeometry width="30" height="30" as="geometry">
            <mxRectangle width="30" height="30" as="alternateBounds" />
          </mxGeometry>
        </mxCell>
        <mxCell id="qPftX9cF_MReuQcQceMw-38" value="email VARCHAR(100)" style="shape=partialRectangle;overflow=hidden;connectable=0;fillColor=#E6E6E6;top=0;left=0;bottom=0;right=0;align=left;spacingLeft=6;labelBackgroundColor=none;strokeColor=#CCCCCC;fontColor=#050505;fontSize=10;" parent="qPftX9cF_MReuQcQceMw-36" vertex="1">
          <mxGeometry x="30" width="180" height="30" as="geometry">
            <mxRectangle width="180" height="30" as="alternateBounds" />
          </mxGeometry>
        </mxCell>
        <mxCell id="qPftX9cF_MReuQcQceMw-39" value="" style="shape=partialRectangle;collapsible=0;dropTarget=0;pointerEvents=0;fillColor=none;points=[[0,0.5],[1,0.5]];portConstraint=eastwest;top=0;left=0;right=0;bottom=0;labelBackgroundColor=none;strokeColor=#BAC8D3;fontColor=#EEEEEE;" parent="C-vyLk0tnHw3VtMMgP7b-23" vertex="1">
          <mxGeometry y="210" width="210" height="30" as="geometry" />
        </mxCell>
        <mxCell id="qPftX9cF_MReuQcQceMw-40" value="" style="shape=partialRectangle;overflow=hidden;connectable=0;fillColor=default;top=0;left=0;bottom=0;right=0;labelBackgroundColor=none;strokeColor=#BAC8D3;fontColor=#EEEEEE;" parent="qPftX9cF_MReuQcQceMw-39" vertex="1">
          <mxGeometry width="30" height="30" as="geometry">
            <mxRectangle width="30" height="30" as="alternateBounds" />
          </mxGeometry>
        </mxCell>
        <mxCell id="qPftX9cF_MReuQcQceMw-41" value="endereco VARCHAR(200)" style="shape=partialRectangle;overflow=hidden;connectable=0;fillColor=#E6E6E6;top=0;left=0;bottom=0;right=0;align=left;spacingLeft=6;labelBackgroundColor=none;strokeColor=#CCCCCC;fontColor=#050505;fontSize=10;" parent="qPftX9cF_MReuQcQceMw-39" vertex="1">
          <mxGeometry x="30" width="180" height="30" as="geometry">
            <mxRectangle width="180" height="30" as="alternateBounds" />
          </mxGeometry>
        </mxCell>
        <mxCell id="qPftX9cF_MReuQcQceMw-42" value="Exames" style="shape=table;startSize=30;container=1;collapsible=1;childLayout=tableLayout;fixedRows=1;rowLines=0;fontStyle=1;align=center;resizeLast=1;labelBackgroundColor=none;fillColor=#09555B;strokeColor=#BAC8D3;fontColor=#EEEEEE;" parent="1" vertex="1">
          <mxGeometry x="540" y="40" width="210" height="120" as="geometry">
            <mxRectangle x="540" y="40" width="100" height="30" as="alternateBounds" />
          </mxGeometry>
        </mxCell>
        <mxCell id="qPftX9cF_MReuQcQceMw-43" value="" style="shape=partialRectangle;collapsible=0;dropTarget=0;pointerEvents=0;fillColor=none;points=[[0,0.5],[1,0.5]];portConstraint=eastwest;top=0;left=0;right=0;bottom=1;labelBackgroundColor=none;strokeColor=#BAC8D3;fontColor=#050505;" parent="qPftX9cF_MReuQcQceMw-42" vertex="1">
          <mxGeometry y="30" width="210" height="30" as="geometry" />
        </mxCell>
        <mxCell id="qPftX9cF_MReuQcQceMw-44" value="PK" style="shape=partialRectangle;overflow=hidden;connectable=0;fillColor=default;top=0;left=0;bottom=0;right=0;fontStyle=1;labelBackgroundColor=none;strokeColor=#BAC8D3;fontColor=#050505;" parent="qPftX9cF_MReuQcQceMw-43" vertex="1">
          <mxGeometry width="30" height="30" as="geometry">
            <mxRectangle width="30" height="30" as="alternateBounds" />
          </mxGeometry>
        </mxCell>
        <mxCell id="qPftX9cF_MReuQcQceMw-45" value="ID" style="shape=partialRectangle;overflow=hidden;connectable=0;fillColor=default;top=0;left=0;bottom=0;right=0;align=left;spacingLeft=6;fontStyle=5;labelBackgroundColor=none;strokeColor=#BAC8D3;fontColor=#030303;" parent="qPftX9cF_MReuQcQceMw-43" vertex="1">
          <mxGeometry x="30" width="180" height="30" as="geometry">
            <mxRectangle width="180" height="30" as="alternateBounds" />
          </mxGeometry>
        </mxCell>
        <mxCell id="qPftX9cF_MReuQcQceMw-46" value="" style="shape=partialRectangle;collapsible=0;dropTarget=0;pointerEvents=0;fillColor=none;points=[[0,0.5],[1,0.5]];portConstraint=eastwest;top=0;left=0;right=0;bottom=0;labelBackgroundColor=none;strokeColor=#BAC8D3;fontColor=#EEEEEE;" parent="qPftX9cF_MReuQcQceMw-42" vertex="1">
          <mxGeometry y="60" width="210" height="30" as="geometry" />
        </mxCell>
        <mxCell id="qPftX9cF_MReuQcQceMw-47" value="" style="shape=partialRectangle;overflow=hidden;connectable=0;fillColor=default;top=0;left=0;bottom=0;right=0;labelBackgroundColor=none;strokeColor=#BAC8D3;fontColor=#EEEEEE;" parent="qPftX9cF_MReuQcQceMw-46" vertex="1">
          <mxGeometry width="30" height="30" as="geometry">
            <mxRectangle width="30" height="30" as="alternateBounds" />
          </mxGeometry>
        </mxCell>
        <mxCell id="qPftX9cF_MReuQcQceMw-48" value="nome VARCHAR(100)" style="shape=partialRectangle;overflow=hidden;connectable=0;fillColor=#E8E8E8;top=0;left=0;bottom=0;right=0;align=left;spacingLeft=6;labelBackgroundColor=none;strokeColor=#BAC8D3;fontColor=#050505;labelBorderColor=none;strokeWidth=1;fontSize=10;" parent="qPftX9cF_MReuQcQceMw-46" vertex="1">
          <mxGeometry x="30" width="180" height="30" as="geometry">
            <mxRectangle width="180" height="30" as="alternateBounds" />
          </mxGeometry>
        </mxCell>
        <mxCell id="qPftX9cF_MReuQcQceMw-49" value="" style="shape=partialRectangle;collapsible=0;dropTarget=0;pointerEvents=0;fillColor=none;points=[[0,0.5],[1,0.5]];portConstraint=eastwest;top=0;left=0;right=0;bottom=0;labelBackgroundColor=none;strokeColor=#BAC8D3;fontColor=#EEEEEE;" parent="qPftX9cF_MReuQcQceMw-42" vertex="1">
          <mxGeometry y="90" width="210" height="30" as="geometry" />
        </mxCell>
        <mxCell id="qPftX9cF_MReuQcQceMw-50" value="" style="shape=partialRectangle;overflow=hidden;connectable=0;fillColor=default;top=0;left=0;bottom=0;right=0;labelBackgroundColor=none;strokeColor=#BAC8D3;fontColor=#EEEEEE;" parent="qPftX9cF_MReuQcQceMw-49" vertex="1">
          <mxGeometry width="30" height="30" as="geometry">
            <mxRectangle width="30" height="30" as="alternateBounds" />
          </mxGeometry>
        </mxCell>
        <mxCell id="qPftX9cF_MReuQcQceMw-51" value="data VARCHAR(11)" style="shape=partialRectangle;overflow=hidden;connectable=0;fillColor=#E6E6E6;top=0;left=0;bottom=0;right=0;align=left;spacingLeft=6;labelBackgroundColor=none;strokeColor=#CCCCCC;fontColor=#050505;fontSize=10;" parent="qPftX9cF_MReuQcQceMw-49" vertex="1">
          <mxGeometry x="30" width="180" height="30" as="geometry">
            <mxRectangle width="180" height="30" as="alternateBounds" />
          </mxGeometry>
        </mxCell>
        <mxCell id="qPftX9cF_MReuQcQceMw-74" value="Medicos" style="shape=table;startSize=30;container=1;collapsible=1;childLayout=tableLayout;fixedRows=1;rowLines=0;fontStyle=1;align=center;resizeLast=1;labelBackgroundColor=none;fillColor=#09555B;strokeColor=#BAC8D3;fontColor=#EEEEEE;" parent="1" vertex="1">
          <mxGeometry x="540" y="200" width="210" height="300" as="geometry">
            <mxRectangle x="540" y="200" width="100" height="30" as="alternateBounds" />
          </mxGeometry>
        </mxCell>
        <mxCell id="qPftX9cF_MReuQcQceMw-75" value="" style="shape=partialRectangle;collapsible=0;dropTarget=0;pointerEvents=0;fillColor=none;points=[[0,0.5],[1,0.5]];portConstraint=eastwest;top=0;left=0;right=0;bottom=1;labelBackgroundColor=none;strokeColor=#BAC8D3;fontColor=#050505;" parent="qPftX9cF_MReuQcQceMw-74" vertex="1">
          <mxGeometry y="30" width="210" height="30" as="geometry" />
        </mxCell>
        <mxCell id="qPftX9cF_MReuQcQceMw-76" value="PK" style="shape=partialRectangle;overflow=hidden;connectable=0;fillColor=default;top=0;left=0;bottom=0;right=0;fontStyle=1;labelBackgroundColor=none;strokeColor=#BAC8D3;fontColor=#050505;" parent="qPftX9cF_MReuQcQceMw-75" vertex="1">
          <mxGeometry width="30" height="30" as="geometry">
            <mxRectangle width="30" height="30" as="alternateBounds" />
          </mxGeometry>
        </mxCell>
        <mxCell id="qPftX9cF_MReuQcQceMw-77" value="ID" style="shape=partialRectangle;overflow=hidden;connectable=0;fillColor=#FFFFFF;top=0;left=0;bottom=0;right=0;align=left;spacingLeft=6;fontStyle=5;labelBackgroundColor=none;strokeColor=#BAC8D3;fontColor=#030303;" parent="qPftX9cF_MReuQcQceMw-75" vertex="1">
          <mxGeometry x="30" width="180" height="30" as="geometry">
            <mxRectangle width="180" height="30" as="alternateBounds" />
          </mxGeometry>
        </mxCell>
        <mxCell id="qPftX9cF_MReuQcQceMw-78" value="" style="shape=partialRectangle;collapsible=0;dropTarget=0;pointerEvents=0;fillColor=none;points=[[0,0.5],[1,0.5]];portConstraint=eastwest;top=0;left=0;right=0;bottom=0;labelBackgroundColor=none;strokeColor=#BAC8D3;fontColor=#EEEEEE;" parent="qPftX9cF_MReuQcQceMw-74" vertex="1">
          <mxGeometry y="60" width="210" height="30" as="geometry" />
        </mxCell>
        <mxCell id="qPftX9cF_MReuQcQceMw-79" value="" style="shape=partialRectangle;overflow=hidden;connectable=0;fillColor=default;top=0;left=0;bottom=0;right=0;labelBackgroundColor=none;strokeColor=#BAC8D3;fontColor=#EEEEEE;" parent="qPftX9cF_MReuQcQceMw-78" vertex="1">
          <mxGeometry width="30" height="30" as="geometry">
            <mxRectangle width="30" height="30" as="alternateBounds" />
          </mxGeometry>
        </mxCell>
        <mxCell id="qPftX9cF_MReuQcQceMw-80" value="nome VARCHAR(100)" style="shape=partialRectangle;overflow=hidden;connectable=0;fillColor=#E8E8E8;top=0;left=0;bottom=0;right=0;align=left;spacingLeft=6;labelBackgroundColor=none;strokeColor=#BAC8D3;fontColor=#050505;labelBorderColor=none;strokeWidth=1;fontSize=10;" parent="qPftX9cF_MReuQcQceMw-78" vertex="1">
          <mxGeometry x="30" width="180" height="30" as="geometry">
            <mxRectangle width="180" height="30" as="alternateBounds" />
          </mxGeometry>
        </mxCell>
        <mxCell id="qPftX9cF_MReuQcQceMw-81" value="" style="shape=partialRectangle;collapsible=0;dropTarget=0;pointerEvents=0;fillColor=none;points=[[0,0.5],[1,0.5]];portConstraint=eastwest;top=0;left=0;right=0;bottom=0;labelBackgroundColor=none;strokeColor=#BAC8D3;fontColor=#EEEEEE;" parent="qPftX9cF_MReuQcQceMw-74" vertex="1">
          <mxGeometry y="90" width="210" height="30" as="geometry" />
        </mxCell>
        <mxCell id="qPftX9cF_MReuQcQceMw-82" value="" style="shape=partialRectangle;overflow=hidden;connectable=0;fillColor=default;top=0;left=0;bottom=0;right=0;labelBackgroundColor=none;strokeColor=#BAC8D3;fontColor=#EEEEEE;" parent="qPftX9cF_MReuQcQceMw-81" vertex="1">
          <mxGeometry width="30" height="30" as="geometry">
            <mxRectangle width="30" height="30" as="alternateBounds" />
          </mxGeometry>
        </mxCell>
        <mxCell id="qPftX9cF_MReuQcQceMw-83" value="cpf VARCHAR(11)" style="shape=partialRectangle;overflow=hidden;connectable=0;fillColor=#E6E6E6;top=0;left=0;bottom=0;right=0;align=left;spacingLeft=6;labelBackgroundColor=none;strokeColor=#CCCCCC;fontColor=#050505;fontSize=10;" parent="qPftX9cF_MReuQcQceMw-81" vertex="1">
          <mxGeometry x="30" width="180" height="30" as="geometry">
            <mxRectangle width="180" height="30" as="alternateBounds" />
          </mxGeometry>
        </mxCell>
        <mxCell id="qPftX9cF_MReuQcQceMw-96" value="" style="shape=partialRectangle;collapsible=0;dropTarget=0;pointerEvents=0;fillColor=none;points=[[0,0.5],[1,0.5]];portConstraint=eastwest;top=0;left=0;right=0;bottom=0;labelBackgroundColor=none;strokeColor=#BAC8D3;fontColor=#EEEEEE;" parent="qPftX9cF_MReuQcQceMw-74" vertex="1">
          <mxGeometry y="120" width="210" height="30" as="geometry" />
        </mxCell>
        <mxCell id="qPftX9cF_MReuQcQceMw-97" value="" style="shape=partialRectangle;overflow=hidden;connectable=0;fillColor=default;top=0;left=0;bottom=0;right=0;labelBackgroundColor=none;strokeColor=#BAC8D3;fontColor=#EEEEEE;" parent="qPftX9cF_MReuQcQceMw-96" vertex="1">
          <mxGeometry width="30" height="30" as="geometry">
            <mxRectangle width="30" height="30" as="alternateBounds" />
          </mxGeometry>
        </mxCell>
        <mxCell id="qPftX9cF_MReuQcQceMw-98" value="crm VARCHAR(10)" style="shape=partialRectangle;overflow=hidden;connectable=0;fillColor=#E6E6E6;top=0;left=0;bottom=0;right=0;align=left;spacingLeft=6;labelBackgroundColor=none;strokeColor=#CCCCCC;fontColor=#050505;fontSize=10;" parent="qPftX9cF_MReuQcQceMw-96" vertex="1">
          <mxGeometry x="30" width="180" height="30" as="geometry">
            <mxRectangle width="180" height="30" as="alternateBounds" />
          </mxGeometry>
        </mxCell>
        <mxCell id="qPftX9cF_MReuQcQceMw-84" value="" style="shape=partialRectangle;collapsible=0;dropTarget=0;pointerEvents=0;fillColor=none;points=[[0,0.5],[1,0.5]];portConstraint=eastwest;top=0;left=0;right=0;bottom=0;labelBackgroundColor=none;strokeColor=#BAC8D3;fontColor=#EEEEEE;" parent="qPftX9cF_MReuQcQceMw-74" vertex="1">
          <mxGeometry y="150" width="210" height="30" as="geometry" />
        </mxCell>
        <mxCell id="qPftX9cF_MReuQcQceMw-85" value="" style="shape=partialRectangle;overflow=hidden;connectable=0;fillColor=default;top=0;left=0;bottom=0;right=0;labelBackgroundColor=none;strokeColor=#BAC8D3;fontColor=#EEEEEE;" parent="qPftX9cF_MReuQcQceMw-84" vertex="1">
          <mxGeometry width="30" height="30" as="geometry">
            <mxRectangle width="30" height="30" as="alternateBounds" />
          </mxGeometry>
        </mxCell>
        <mxCell id="qPftX9cF_MReuQcQceMw-86" value="nascimento VARCHAR(11)" style="shape=partialRectangle;overflow=hidden;connectable=0;fillColor=#E6E6E6;top=0;left=0;bottom=0;right=0;align=left;spacingLeft=6;labelBackgroundColor=none;strokeColor=#CCCCCC;fontColor=#050505;fontSize=10;" parent="qPftX9cF_MReuQcQceMw-84" vertex="1">
          <mxGeometry x="30" width="180" height="30" as="geometry">
            <mxRectangle width="180" height="30" as="alternateBounds" />
          </mxGeometry>
        </mxCell>
        <mxCell id="qPftX9cF_MReuQcQceMw-87" value="" style="shape=partialRectangle;collapsible=0;dropTarget=0;pointerEvents=0;fillColor=none;points=[[0,0.5],[1,0.5]];portConstraint=eastwest;top=0;left=0;right=0;bottom=0;labelBackgroundColor=none;strokeColor=#BAC8D3;fontColor=#EEEEEE;" parent="qPftX9cF_MReuQcQceMw-74" vertex="1">
          <mxGeometry y="180" width="210" height="30" as="geometry" />
        </mxCell>
        <mxCell id="qPftX9cF_MReuQcQceMw-88" value="" style="shape=partialRectangle;overflow=hidden;connectable=0;fillColor=default;top=0;left=0;bottom=0;right=0;labelBackgroundColor=none;strokeColor=#BAC8D3;fontColor=#EEEEEE;" parent="qPftX9cF_MReuQcQceMw-87" vertex="1">
          <mxGeometry width="30" height="30" as="geometry">
            <mxRectangle width="30" height="30" as="alternateBounds" />
          </mxGeometry>
        </mxCell>
        <mxCell id="qPftX9cF_MReuQcQceMw-89" value="telefone VARCHAR(11)" style="shape=partialRectangle;overflow=hidden;connectable=0;fillColor=#E6E6E6;top=0;left=0;bottom=0;right=0;align=left;spacingLeft=6;labelBackgroundColor=none;strokeColor=#CCCCCC;fontColor=#050505;fontSize=10;" parent="qPftX9cF_MReuQcQceMw-87" vertex="1">
          <mxGeometry x="30" width="180" height="30" as="geometry">
            <mxRectangle width="180" height="30" as="alternateBounds" />
          </mxGeometry>
        </mxCell>
        <mxCell id="qPftX9cF_MReuQcQceMw-90" value="" style="shape=partialRectangle;collapsible=0;dropTarget=0;pointerEvents=0;fillColor=none;points=[[0,0.5],[1,0.5]];portConstraint=eastwest;top=0;left=0;right=0;bottom=0;labelBackgroundColor=none;strokeColor=#BAC8D3;fontColor=#EEEEEE;" parent="qPftX9cF_MReuQcQceMw-74" vertex="1">
          <mxGeometry y="210" width="210" height="30" as="geometry" />
        </mxCell>
        <mxCell id="qPftX9cF_MReuQcQceMw-91" value="" style="shape=partialRectangle;overflow=hidden;connectable=0;fillColor=default;top=0;left=0;bottom=0;right=0;labelBackgroundColor=none;strokeColor=#BAC8D3;fontColor=#EEEEEE;" parent="qPftX9cF_MReuQcQceMw-90" vertex="1">
          <mxGeometry width="30" height="30" as="geometry">
            <mxRectangle width="30" height="30" as="alternateBounds" />
          </mxGeometry>
        </mxCell>
        <mxCell id="qPftX9cF_MReuQcQceMw-92" value="email VARCHAR(100)" style="shape=partialRectangle;overflow=hidden;connectable=0;fillColor=#E6E6E6;top=0;left=0;bottom=0;right=0;align=left;spacingLeft=6;labelBackgroundColor=none;strokeColor=#CCCCCC;fontColor=#050505;fontSize=10;" parent="qPftX9cF_MReuQcQceMw-90" vertex="1">
          <mxGeometry x="30" width="180" height="30" as="geometry">
            <mxRectangle width="180" height="30" as="alternateBounds" />
          </mxGeometry>
        </mxCell>
        <mxCell id="qPftX9cF_MReuQcQceMw-93" value="" style="shape=partialRectangle;collapsible=0;dropTarget=0;pointerEvents=0;fillColor=none;points=[[0,0.5],[1,0.5]];portConstraint=eastwest;top=0;left=0;right=0;bottom=0;labelBackgroundColor=none;strokeColor=#BAC8D3;fontColor=#EEEEEE;" parent="qPftX9cF_MReuQcQceMw-74" vertex="1">
          <mxGeometry y="240" width="210" height="30" as="geometry" />
        </mxCell>
        <mxCell id="qPftX9cF_MReuQcQceMw-94" value="" style="shape=partialRectangle;overflow=hidden;connectable=0;fillColor=default;top=0;left=0;bottom=0;right=0;labelBackgroundColor=none;strokeColor=#BAC8D3;fontColor=#EEEEEE;" parent="qPftX9cF_MReuQcQceMw-93" vertex="1">
          <mxGeometry width="30" height="30" as="geometry">
            <mxRectangle width="30" height="30" as="alternateBounds" />
          </mxGeometry>
        </mxCell>
        <mxCell id="qPftX9cF_MReuQcQceMw-95" value="endereco VARCHAR(200)" style="shape=partialRectangle;overflow=hidden;connectable=0;fillColor=#E6E6E6;top=0;left=0;bottom=0;right=0;align=left;spacingLeft=6;labelBackgroundColor=none;strokeColor=#CCCCCC;fontColor=#050505;fontSize=10;" parent="qPftX9cF_MReuQcQceMw-93" vertex="1">
          <mxGeometry x="30" width="180" height="30" as="geometry">
            <mxRectangle width="180" height="30" as="alternateBounds" />
          </mxGeometry>
        </mxCell>
        <mxCell id="qPftX9cF_MReuQcQceMw-99" value="" style="shape=partialRectangle;collapsible=0;dropTarget=0;pointerEvents=0;fillColor=none;points=[[0,0.5],[1,0.5]];portConstraint=eastwest;top=0;left=0;right=0;bottom=0;labelBackgroundColor=none;strokeColor=#BAC8D3;fontColor=#EEEEEE;" parent="qPftX9cF_MReuQcQceMw-74" vertex="1">
          <mxGeometry y="270" width="210" height="30" as="geometry" />
        </mxCell>
        <mxCell id="qPftX9cF_MReuQcQceMw-100" value="" style="shape=partialRectangle;overflow=hidden;connectable=0;fillColor=default;top=0;left=0;bottom=0;right=0;labelBackgroundColor=none;strokeColor=#BAC8D3;fontColor=#EEEEEE;" parent="qPftX9cF_MReuQcQceMw-99" vertex="1">
          <mxGeometry width="30" height="30" as="geometry">
            <mxRectangle width="30" height="30" as="alternateBounds" />
          </mxGeometry>
        </mxCell>
        <mxCell id="qPftX9cF_MReuQcQceMw-101" value="especialidade VARCHAR(100)" style="shape=partialRectangle;overflow=hidden;connectable=0;fillColor=#E6E6E6;top=0;left=0;bottom=0;right=0;align=left;spacingLeft=6;labelBackgroundColor=none;strokeColor=#CCCCCC;fontColor=#050505;fontSize=10;" parent="qPftX9cF_MReuQcQceMw-99" vertex="1">
          <mxGeometry x="30" width="180" height="30" as="geometry">
            <mxRectangle width="180" height="30" as="alternateBounds" />
          </mxGeometry>
        </mxCell>
        <mxCell id="qPftX9cF_MReuQcQceMw-113" value="" style="group" parent="1" vertex="1" connectable="0">
          <mxGeometry x="30" y="350" width="210" height="150" as="geometry" />
        </mxCell>
        <mxCell id="qPftX9cF_MReuQcQceMw-112" value="FK" style="shape=partialRectangle;overflow=hidden;connectable=0;fillColor=default;top=0;left=0;bottom=0;right=0;fontStyle=1;labelBackgroundColor=none;strokeColor=#BAC8D3;fontColor=#050505;" parent="qPftX9cF_MReuQcQceMw-113" vertex="1">
          <mxGeometry y="90" width="30" height="30" as="geometry">
            <mxRectangle width="30" height="30" as="alternateBounds" />
          </mxGeometry>
        </mxCell>
        <mxCell id="qPftX9cF_MReuQcQceMw-118" value="" style="group" parent="qPftX9cF_MReuQcQceMw-113" vertex="1" connectable="0">
          <mxGeometry width="210" height="150" as="geometry" />
        </mxCell>
        <mxCell id="qPftX9cF_MReuQcQceMw-148" value="" style="group" parent="qPftX9cF_MReuQcQceMw-118" vertex="1" connectable="0">
          <mxGeometry width="210" height="150" as="geometry" />
        </mxCell>
        <mxCell id="qPftX9cF_MReuQcQceMw-102" value="Agendamentos" style="shape=table;startSize=30;container=1;collapsible=1;childLayout=tableLayout;fixedRows=1;rowLines=0;fontStyle=1;align=center;resizeLast=1;labelBackgroundColor=none;fillColor=#09555B;strokeColor=#BAC8D3;fontColor=#EEEEEE;" parent="qPftX9cF_MReuQcQceMw-148" vertex="1">
          <mxGeometry width="210" height="150" as="geometry">
            <mxRectangle width="100" height="30" as="alternateBounds" />
          </mxGeometry>
        </mxCell>
        <mxCell id="qPftX9cF_MReuQcQceMw-103" value="" style="shape=partialRectangle;collapsible=0;dropTarget=0;pointerEvents=0;fillColor=none;points=[[0,0.5],[1,0.5]];portConstraint=eastwest;top=0;left=0;right=0;bottom=1;labelBackgroundColor=none;strokeColor=#BAC8D3;fontColor=#050505;" parent="qPftX9cF_MReuQcQceMw-102" vertex="1">
          <mxGeometry y="30" width="210" height="30" as="geometry" />
        </mxCell>
        <mxCell id="qPftX9cF_MReuQcQceMw-104" value="PK" style="shape=partialRectangle;overflow=hidden;connectable=0;fillColor=default;top=0;left=0;bottom=0;right=0;fontStyle=1;labelBackgroundColor=none;strokeColor=#BAC8D3;fontColor=#050505;" parent="qPftX9cF_MReuQcQceMw-103" vertex="1">
          <mxGeometry width="30" height="30" as="geometry">
            <mxRectangle width="30" height="30" as="alternateBounds" />
          </mxGeometry>
        </mxCell>
        <mxCell id="qPftX9cF_MReuQcQceMw-105" value="ID" style="shape=partialRectangle;overflow=hidden;connectable=0;fillColor=default;top=0;left=0;bottom=0;right=0;align=left;spacingLeft=6;fontStyle=5;labelBackgroundColor=none;strokeColor=#BAC8D3;fontColor=#030303;" parent="qPftX9cF_MReuQcQceMw-103" vertex="1">
          <mxGeometry x="30" width="180" height="30" as="geometry">
            <mxRectangle width="180" height="30" as="alternateBounds" />
          </mxGeometry>
        </mxCell>
        <mxCell id="qPftX9cF_MReuQcQceMw-106" value="" style="shape=partialRectangle;collapsible=0;dropTarget=0;pointerEvents=0;fillColor=none;points=[[0,0.5],[1,0.5]];portConstraint=eastwest;top=0;left=0;right=0;bottom=0;labelBackgroundColor=none;strokeColor=#BAC8D3;fontColor=#EEEEEE;" parent="qPftX9cF_MReuQcQceMw-102" vertex="1">
          <mxGeometry y="60" width="210" height="30" as="geometry" />
        </mxCell>
        <mxCell id="qPftX9cF_MReuQcQceMw-107" value="" style="shape=partialRectangle;overflow=hidden;connectable=0;fillColor=default;top=0;left=0;bottom=0;right=0;labelBackgroundColor=none;strokeColor=#BAC8D3;fontColor=#EEEEEE;" parent="qPftX9cF_MReuQcQceMw-106" vertex="1">
          <mxGeometry width="30" height="30" as="geometry">
            <mxRectangle width="30" height="30" as="alternateBounds" />
          </mxGeometry>
        </mxCell>
        <mxCell id="qPftX9cF_MReuQcQceMw-108" value="dataHora VARCHAR(11)" style="shape=partialRectangle;overflow=hidden;connectable=0;fillColor=#E8E8E8;top=0;left=0;bottom=0;right=0;align=left;spacingLeft=6;labelBackgroundColor=none;strokeColor=#BAC8D3;fontColor=#050505;labelBorderColor=none;strokeWidth=1;fontSize=10;" parent="qPftX9cF_MReuQcQceMw-106" vertex="1">
          <mxGeometry x="30" width="180" height="30" as="geometry">
            <mxRectangle width="180" height="30" as="alternateBounds" />
          </mxGeometry>
        </mxCell>
        <mxCell id="qPftX9cF_MReuQcQceMw-109" value="" style="shape=partialRectangle;collapsible=0;dropTarget=0;pointerEvents=0;fillColor=none;points=[[0,0.5],[1,0.5]];portConstraint=eastwest;top=0;left=0;right=0;bottom=0;labelBackgroundColor=none;strokeColor=#BAC8D3;fontColor=#EEEEEE;" parent="qPftX9cF_MReuQcQceMw-102" vertex="1">
          <mxGeometry y="90" width="210" height="30" as="geometry" />
        </mxCell>
        <mxCell id="qPftX9cF_MReuQcQceMw-110" value="" style="shape=partialRectangle;overflow=hidden;connectable=0;fillColor=none;top=0;left=0;bottom=0;right=0;labelBackgroundColor=none;strokeColor=#BAC8D3;fontColor=#EEEEEE;" parent="qPftX9cF_MReuQcQceMw-109" vertex="1">
          <mxGeometry width="30" height="30" as="geometry">
            <mxRectangle width="30" height="30" as="alternateBounds" />
          </mxGeometry>
        </mxCell>
        <mxCell id="qPftX9cF_MReuQcQceMw-111" value="id_exame" style="shape=partialRectangle;overflow=hidden;connectable=0;fillColor=#E6E6E6;top=0;left=0;bottom=0;right=0;align=left;spacingLeft=6;labelBackgroundColor=none;strokeColor=#CCCCCC;fontColor=#050505;fontSize=10;" parent="qPftX9cF_MReuQcQceMw-109" vertex="1">
          <mxGeometry x="30" width="180" height="30" as="geometry">
            <mxRectangle width="180" height="30" as="alternateBounds" />
          </mxGeometry>
        </mxCell>
        <mxCell id="qPftX9cF_MReuQcQceMw-114" value="" style="shape=partialRectangle;collapsible=0;dropTarget=0;pointerEvents=0;fillColor=none;points=[[0,0.5],[1,0.5]];portConstraint=eastwest;top=0;left=0;right=0;bottom=0;labelBackgroundColor=none;strokeColor=#BAC8D3;fontColor=#EEEEEE;" parent="qPftX9cF_MReuQcQceMw-102" vertex="1">
          <mxGeometry y="120" width="210" height="30" as="geometry" />
        </mxCell>
        <mxCell id="qPftX9cF_MReuQcQceMw-115" value="" style="shape=partialRectangle;overflow=hidden;connectable=0;fillColor=none;top=0;left=0;bottom=0;right=0;labelBackgroundColor=none;strokeColor=#BAC8D3;fontColor=#EEEEEE;" parent="qPftX9cF_MReuQcQceMw-114" vertex="1">
          <mxGeometry width="30" height="30" as="geometry">
            <mxRectangle width="30" height="30" as="alternateBounds" />
          </mxGeometry>
        </mxCell>
        <mxCell id="qPftX9cF_MReuQcQceMw-116" value="id_paciente" style="shape=partialRectangle;overflow=hidden;connectable=0;fillColor=#E6E6E6;top=0;left=0;bottom=0;right=0;align=left;spacingLeft=6;labelBackgroundColor=none;strokeColor=#CCCCCC;fontColor=#050505;fontSize=10;" parent="qPftX9cF_MReuQcQceMw-114" vertex="1">
          <mxGeometry x="30" width="180" height="30" as="geometry">
            <mxRectangle width="180" height="30" as="alternateBounds" />
          </mxGeometry>
        </mxCell>
        <mxCell id="qPftX9cF_MReuQcQceMw-117" value="FK" style="shape=partialRectangle;overflow=hidden;connectable=0;fillColor=default;top=0;left=0;bottom=0;right=0;fontStyle=1;labelBackgroundColor=none;strokeColor=#BAC8D3;fontColor=#050505;" parent="qPftX9cF_MReuQcQceMw-148" vertex="1">
          <mxGeometry y="120" width="30" height="30" as="geometry">
            <mxRectangle width="30" height="30" as="alternateBounds" />
          </mxGeometry>
        </mxCell>
        <mxCell id="qPftX9cF_MReuQcQceMw-119" value="Text" style="text;html=1;align=center;verticalAlign=middle;resizable=0;points=[];autosize=1;strokeColor=none;fillColor=none;fontColor=#EEEEEE;" parent="1" vertex="1">
          <mxGeometry x="825" y="208" width="50" height="30" as="geometry" />
        </mxCell>
        <mxCell id="qPftX9cF_MReuQcQceMw-125" value="" style="edgeStyle=entityRelationEdgeStyle;fontSize=12;html=1;endArrow=ERoneToMany;rounded=0;strokeColor=#0B4D6A;entryX=0;entryY=0.5;entryDx=0;entryDy=0;exitX=1;exitY=0.5;exitDx=0;exitDy=0;" parent="1" source="C-vyLk0tnHw3VtMMgP7b-24" target="qPftX9cF_MReuQcQceMw-43" edge="1">
          <mxGeometry width="100" height="100" relative="1" as="geometry">
            <mxPoint x="281" y="85" as="sourcePoint" />
            <mxPoint x="432.3099999999997" y="155.68000000000006" as="targetPoint" />
          </mxGeometry>
        </mxCell>
        <mxCell id="qPftX9cF_MReuQcQceMw-129" value="" style="edgeStyle=entityRelationEdgeStyle;fontSize=12;html=1;endArrow=ERoneToMany;rounded=0;strokeColor=#0B4D6A;exitX=0;exitY=0.833;exitDx=0;exitDy=0;entryX=1.003;entryY=0.881;entryDx=0;entryDy=0;entryPerimeter=0;exitPerimeter=0;" parent="1" source="qPftX9cF_MReuQcQceMw-75" target="qPftX9cF_MReuQcQceMw-103" edge="1">
          <mxGeometry width="100" height="100" relative="1" as="geometry">
            <mxPoint x="370" y="340" as="sourcePoint" />
            <mxPoint x="470" y="240" as="targetPoint" />
          </mxGeometry>
        </mxCell>
        <mxCell id="qPftX9cF_MReuQcQceMw-139" value="" style="edgeStyle=entityRelationEdgeStyle;fontSize=12;html=1;endArrow=ERmany;startArrow=ERmany;rounded=0;strokeColor=#0B4D6A;entryX=0;entryY=0.5;entryDx=0;entryDy=0;exitX=0.999;exitY=0.64;exitDx=0;exitDy=0;exitPerimeter=0;" parent="1" source="qPftX9cF_MReuQcQceMw-103" target="qPftX9cF_MReuQcQceMw-43" edge="1">
          <mxGeometry width="100" height="100" relative="1" as="geometry">
            <mxPoint x="280" y="409" as="sourcePoint" />
            <mxPoint x="380" y="300" as="targetPoint" />
          </mxGeometry>
        </mxCell>
        <mxCell id="qPftX9cF_MReuQcQceMw-141" value="" style="edgeStyle=orthogonalEdgeStyle;fontSize=12;html=1;endArrow=ERoneToMany;rounded=0;strokeColor=#0B4D6A;exitX=1;exitY=0.5;exitDx=0;exitDy=0;entryX=1.003;entryY=0.176;entryDx=0;entryDy=0;entryPerimeter=0;" parent="1" source="C-vyLk0tnHw3VtMMgP7b-24" target="qPftX9cF_MReuQcQceMw-103" edge="1">
          <mxGeometry width="100" height="100" relative="1" as="geometry">
            <mxPoint x="310" y="260" as="sourcePoint" />
            <mxPoint x="410" y="160" as="targetPoint" />
            <Array as="points">
              <mxPoint x="270" y="85" />
              <mxPoint x="270" y="385" />
            </Array>
          </mxGeometry>
        </mxCell>
      </root>
    </mxGraphModel>
  </diagram>
</mxfile>
